<svg width="72" height="45" viewBox="0 0 72 45" fill="none" xmlns="http://www.w3.org/2000/svg">
<path fill-rule="evenodd" clip-rule="evenodd" d="M-0.00012207 9.792C-0.00012207 4.38403 4.38391 0 9.79188 0H27.6479C29.5566 0 31.1039 1.5473 31.1039 3.456C31.1039 5.3647 29.5566 6.912 27.6479 6.912H9.79188C8.2013 6.912 6.91188 8.20142 6.91188 9.792V34.56C6.91188 36.1506 8.2013 37.44 9.79188 37.44H24.7679C26.3585 37.44 27.6479 36.1506 27.6479 34.56V27.648C27.6479 22.24 32.0319 17.856 37.4399 17.856H46.3679C48.2766 17.856 49.8239 19.4033 49.8239 21.312C49.8239 23.2207 48.2766 24.768 46.3679 24.768H37.4399C35.8493 24.768 34.5599 26.0574 34.5599 27.648V34.56C34.5599 39.968 30.1759 44.352 24.7679 44.352H9.79188C4.38391 44.352 -0.00012207 39.968 -0.00012207 34.56V9.792Z" fill="#FF7A4B"/>
<path fill-rule="evenodd" clip-rule="evenodd" d="M48.3839 24.7681C46.4752 24.7681 44.9279 23.2208 44.9279 21.3121C44.9279 19.4034 46.4752 17.8561 48.3839 17.8561L68.5439 17.8561C70.4526 17.8561 71.9999 19.4034 71.9999 21.3121C71.9999 23.2208 70.4526 24.7681 68.5439 24.7681L48.3839 24.7681Z" fill="white"/>
<path fill-rule="evenodd" clip-rule="evenodd" d="M40.8959 9.792C40.8959 4.38403 45.2799 0 50.6879 0H68.5439C70.4526 0 71.9999 1.5473 71.9999 3.456C71.9999 5.3647 70.4526 6.912 68.5439 6.912H50.6879C49.0973 6.912 47.8079 8.20142 47.8079 9.792V40.896C47.8079 42.8047 46.2606 44.352 44.3519 44.352C42.4432 44.352 40.8959 42.8047 40.8959 40.896V9.792Z" fill="white"/>
</svg>