<svg width="31" height="20" viewBox="0 0 31 20" fill="none" xmlns="http://www.w3.org/2000/svg">
<path fill-rule="evenodd" clip-rule="evenodd" d="M0 4.21599C0 1.88756 1.88756 0 4.21599 0H13.392V2.97599H4.21599C3.53116 2.97599 2.97599 3.53116 2.97599 4.21599V14.88C2.97599 15.5648 3.53116 16.12 4.21599 16.12H10.664C11.3488 16.12 11.904 15.5648 11.904 14.88V11.904C11.904 9.57555 13.7915 7.68798 16.12 7.68798H21.452V10.664H16.12C15.4351 10.664 14.88 11.2191 14.88 11.904V14.88C14.88 17.2084 12.9924 19.096 10.664 19.096H4.21599C1.88756 19.096 0 17.2084 0 14.88V4.21599Z" fill="#FF7A4B"/>
<path fill-rule="evenodd" clip-rule="evenodd" d="M19.344 10.6645L19.344 7.68848L31 7.68848L31 10.6645L19.344 10.6645Z" fill="#424242"/>
<path fill-rule="evenodd" clip-rule="evenodd" d="M17.6079 4.21599C17.6079 1.88756 19.4955 0 21.8239 0H30.9999V2.97599H21.8239C21.1391 2.97599 20.5839 3.53116 20.5839 4.21599V19.096H17.6079V4.21599Z" fill="#424242"/>
</svg>